<svg width="742" height="172" viewBox="0 0 742 172" fill="none" xmlns="http://www.w3.org/2000/svg">
<path d="M724.5 56.9856C724 57.0856 723.4 57.2856 722.9 57.2856C717.7 57.4856 712.5 57.6856 707.3 57.9856C706.1 58.0856 704.5 58.2856 703.7 59.0856C701.9 60.9856 699.8 61.2856 697.4 61.4856C694.1 61.6856 693.6 62.1856 691.8 65.6856C695.9 68.0856 700.5 66.3856 704.6 67.2856C704.1 67.6856 703.5 68.1856 702.3 69.0856C704.5 69.8856 706.1 70.8856 707.7 70.9856C712.3 71.2856 717 71.2856 721.6 71.3856C722.9 71.3856 724.2 71.3856 725.5 71.5856C728.8 72.0856 731.8 71.0856 735.3 70.1856C734.6 69.2856 734.2 68.7856 733.5 67.8856C736.2 67.8856 738.7 67.8856 741.2 67.8856C740.1 72.0856 739.8 72.2856 735.9 72.4856C732.7 72.5856 729.4 72.6856 726.2 72.8856C725.1 72.9856 723.8 73.0856 722.8 73.6856C718.9 75.7856 714.8 75.7856 710.7 75.4856C710.1 75.4856 709.3 75.0856 708.8 75.2856C705.1 77.1856 701.1 75.8856 697.3 76.3856C694.6 76.7856 692 77.8856 689.4 78.7856C689.4 79.0856 689.4 79.3856 689.4 79.6856C690.8 79.9856 692.2 80.3856 693.6 80.5856C699 81.6856 704.2 83.4856 710 82.9856C715.4 82.4856 720.9 82.8856 727.1 82.8856C726 83.4856 725.5 83.8856 725 83.9856C719.6 84.5856 714.2 85.1856 708.7 85.6856C707 85.7856 705.3 85.4856 703.6 85.4856C701.7 85.3856 699.7 85.0856 697.8 85.2856C690.1 86.1856 682.3 87.2856 674.6 88.2856C672.2 88.5856 669.7 88.5856 667.2 88.7856C664.7 88.9856 662.3 89.1856 659.9 89.6856C658.1 90.0856 656.6 91.1856 656.9 93.8856C665.1 94.1856 673.2 93.4856 681.8 92.6856C679.8 95.3856 677.2 95.3856 675 95.6856C663.8 97.1856 652.6 98.3856 641.3 99.6856C640.8 99.7856 640.2 99.6856 639.8 99.9856C639.4 100.186 638.8 100.686 638.8 100.986C638.8 101.586 639.2 102.386 639.6 102.586C640.4 102.986 641.3 102.986 642.2 103.086C645.8 103.086 649.5 103.086 653.4 103.086C652.7 104.586 652.1 105.786 651.5 107.086C654.7 108.786 657.8 107.786 660.8 107.986C663.7 108.186 666.6 107.986 669.6 108.486C662.5 110.386 655 108.586 648.1 111.286C647.7 113.486 648.7 114.186 650.4 114.186C653.3 114.186 656.1 114.386 659 114.386C666.5 114.386 674.1 114.286 681.6 114.286C683.7 114.286 685.7 114.886 687.8 115.086C690.6 115.386 693.5 115.986 696.3 115.986C706.2 115.986 716.1 115.686 725.9 115.586C727.4 115.586 728.9 115.886 730.5 116.386C725.7 118.186 720.5 117.486 715.6 118.186C710.5 118.886 705.4 119.186 700.3 119.686C700.3 119.986 700.3 120.386 700.2 120.686C701.1 120.886 702 121.186 702.9 121.186C709.4 121.186 715.9 121.086 722.4 121.186C725.6 121.186 728.9 120.686 732.7 122.286C724.7 122.786 717.5 123.286 710 123.786C710.4 127.486 708.1 128.386 705.1 128.786C700.6 129.386 696.1 129.986 691.6 130.686C689.7 130.986 687.7 131.286 685.9 131.986C684.8 132.386 684 133.286 683.1 134.486C686.8 135.786 690.5 135.286 694.5 135.286C693.7 137.186 692.2 137.186 690.9 137.286C686.6 137.686 682.3 137.986 678.1 138.386C676.4 138.586 674.8 138.886 673.1 139.286C672.7 139.386 672.1 140.286 672.2 140.786C672.2 141.286 672.9 141.986 673.4 142.086C674.9 142.386 676.5 142.386 678.8 142.486C674.1 144.686 669.5 144.286 665.3 145.386C661.2 146.386 657 147.586 652.9 148.986C655.9 150.286 658.9 149.586 662 149.186C665.2 148.786 668.4 148.786 671.8 149.286C671.3 149.586 670.7 150.086 670.2 150.086C665.7 150.386 661.1 150.186 656.6 150.786C643.8 152.486 631 151.886 618.2 153.286C593.9 155.886 569.4 156.486 545 157.586C540.3 157.786 535.6 157.586 531 157.686C529.3 157.686 527.7 157.986 526 158.186C525.4 158.286 524.7 158.486 524.1 158.386C520.5 158.186 516.9 157.786 513.3 157.786C498.6 157.686 483.9 157.786 469.2 157.686C462.8 157.686 456.5 157.486 450.1 157.286C449.6 157.286 449 157.286 448.5 157.386C440.7 159.586 432.7 158.186 424.9 158.386C404.3 158.786 383.8 158.786 363.2 158.986C349.1 159.086 335.1 159.186 321 159.286C311.6 159.386 302.3 159.486 292.9 159.586C273.4 159.686 253.9 159.786 234.4 159.886C225.7 159.886 217 159.786 208.2 159.886C206.2 159.886 204.1 160.286 202.1 160.486C201.6 162.386 202.3 163.386 203.7 163.786C204.9 164.086 206.3 164.086 207.6 164.186C216.2 164.486 224.8 164.786 233.4 165.086C233.9 165.086 234.3 165.286 234.8 166.186C230.7 166.486 226.5 166.986 222.4 166.986C211.7 166.986 201.1 166.786 190.4 166.586C182.9 166.486 175.3 166.486 167.8 166.086C155.3 165.486 142.9 164.886 130.4 163.986C119.9 163.186 109.5 161.786 99 160.686C83 159.086 66.9 157.586 50.9 155.986C47.8 155.686 44.7 155.186 41.6 154.786C40.8 154.686 40 154.286 39.1 153.986C39.1 153.686 39.1 153.486 39.1 153.186C40.5 153.086 42 152.786 43.4 152.886C49.6 153.386 55.8 153.886 62 154.486C62.3 154.486 62.5 154.686 62.8 154.586C66.7 154.186 70.6 153.786 74.5 153.386C72.7 151.986 68 151.186 59.4 150.486C54 150.086 48.5 149.286 43.1 148.786C37.9 148.286 32.7 147.786 27.5 147.286C27.5 146.986 27.5 146.686 27.5 146.386C30.6 146.086 33.7 145.886 37.3 145.586C34.4 141.986 30.6 144.586 27.3 142.786C30.6 141.386 34.1 142.886 37.1 140.786C34.6 139.186 32.1 139.886 29.7 139.686C27.2 139.586 24.8 139.286 22.3 138.886C20 138.486 17.6 140.086 15.4 138.086C25.8 138.086 36.1 136.686 46.5 136.486C46.5 136.186 46.6 135.786 46.6 135.486C46 135.186 45.5 134.586 44.8 134.486C42 134.086 39.2 133.686 36.4 133.486C30.7 132.986 25.2 131.686 19.4 131.886C15.4 131.986 11.4 131.186 7.3 130.986C4.3 130.786 2 129.586 0 126.786C0.9 126.386 1.59999 125.886 2.39999 125.786C7.59999 125.386 12.8 125.086 17.9 124.786C21.7 124.586 25.3 124.286 28.5 121.686C29.7 120.686 31.9 120.686 33.7 120.486C43.9 119.586 54.1 118.786 64.4 117.986C71.7 117.386 78.9 116.886 86.2 116.486C88.4 116.386 90.6 116.786 92.8 116.786C95.3 116.786 97.7 116.786 100.2 116.586C101.7 116.486 102.9 115.786 103 113.386C97 112.986 91.1 112.686 85 112.286C86.9 109.486 89.6 108.486 92.7 108.086C99.1 107.386 105.5 105.986 112 106.286C113.1 106.286 114.2 105.986 115.2 105.886C115.2 105.586 115.2 105.386 115.2 105.086C114.6 104.886 113.9 104.386 113.3 104.386C109.3 104.586 105.3 104.986 101.3 105.286C93.8 105.886 86.3 106.386 78.7 106.986C74.8 107.286 70.9 107.586 67 107.486C63.1 107.486 59.2 107.186 55.8 104.886C55.1 104.386 54.1 104.586 53.2 104.386C45.7 102.986 38.1 101.686 30.6 100.286C30.3 100.186 30 99.8856 29.7 99.5856C31 98.0856 32.3 99.0856 33.7 99.2856C38.4 99.9856 43.1 101.086 47.8 99.2856C48.8 98.8856 49.7 98.2856 50.7 97.2856C41.5 97.1856 32.5 95.9856 23.5 93.5856C24.3 93.3856 25.1 93.0856 25.9 92.9856C27.2 92.8856 28.5 92.9856 29.8 92.7856C31.4 92.5856 33.5 93.2856 34.1 90.9856C34.6 88.7856 32.2 88.8856 31.2 87.9856C31.1 87.8856 31.1 87.7856 31 87.5856C31.8 86.9856 32.5 86.3856 33.8 85.3856C31.9 84.8856 30.7 84.5856 29 84.1856C29.4 83.4856 29.6 82.5856 30.1 82.3856C31.9 81.7856 33.9 81.4856 35.8 80.9856C39.9 79.9856 44 78.9856 48.6 77.8856C47 75.8856 45.1 75.4856 43.7 75.7856C41.4 76.1856 38.7 75.4856 36.8 77.6856C36.6 77.8856 35.9 77.8856 35.5 77.7856C34.9 77.6856 34.2 77.2856 33.8 77.4856C28.1 79.8856 22.3 78.5856 16.6 77.6856C14.8 77.3856 13.2 76.1856 11.2 75.1856C15.3 73.3856 22.5 71.9856 25.7 72.0856C27.9 72.1856 29.9 71.5856 32.7 70.1856C28.1 68.7856 24.2 70.5856 20.1 70.0856C21.9 67.5856 23.9 65.8856 26.7 65.4856C30.7 64.8856 32.3 61.3856 35.4 59.6856C35.3 59.3856 35.3 59.0856 35.2 58.7856C33.1 58.6856 30.9 58.8856 28.9 58.3856C27 57.8856 25.2 56.5856 23.3 55.6856C24 53.7856 24.6 52.0856 25.2 50.3856C22.1 48.8856 20.9 53.2856 18.1 52.5856C17.5 51.6856 16.7 50.5856 16.1 49.6856C17.6 44.0856 23.1 42.8856 27.3 40.0856C27.2 39.8856 27.1 39.5856 27 39.3856C26.4 39.2856 25.9 39.1856 25.3 39.2856C24.7 39.2856 24.1 39.4856 23.3 39.6856C22.7 38.0856 22.2 36.4856 21.5 34.7856C24.1 33.7856 26.6 32.7856 29.1 31.7856C31.4 30.8856 34.3 32.5856 36.4 29.9856C35.3 28.0856 33.5 28.3856 31.9 28.1856C30.4 27.9856 28.9 28.1856 27.3 27.4856C31.2 25.8856 35.1 24.3856 38.9 22.5856C47.3 18.4856 56.4 17.7856 65.3 15.8856C77.4 13.3856 89.6 11.1856 101.8 9.28559C114.3 7.28559 126.8 5.48558 139.3 4.18558C152.2 2.88558 165.2 2.28559 178.2 1.28559C180.7 1.08559 183 2.28558 185.6 1.98558C189.8 1.48558 194.1 2.38558 198.4 2.48558C200.7 2.58558 203.1 2.38557 205.4 2.08557C210.3 1.48557 215.2 0.78558 220.1 0.18558C220.7 0.0855802 221.6 -0.114426 222 0.0855741C225.9 2.38557 229.9 0.785586 233.9 0.785586C235.4 0.785586 236.8 0.785586 238.3 0.785586C238.3 1.08559 238.4 1.28557 238.4 1.58557C236.9 2.28557 235.4 2.98558 233.9 3.68558C233.9 3.98558 234 4.18557 234 4.48557C235.7 4.58557 237.4 4.68559 239.1 4.78559C240.8 4.98559 242.4 5.38557 244.1 5.48557C249.7 5.58557 255.3 5.78558 260.8 5.68558C268.5 5.48558 276.1 4.98559 283.8 4.88559C289.1 4.78559 294.4 4.98557 299.7 5.08557C300.2 5.08557 300.7 5.08557 301.3 5.08557C312.8 3.88557 324.3 3.78557 335.9 4.48557C340.2 4.68557 344.6 4.28558 349 4.18558C359.1 4.08558 369.2 4.08557 379.3 4.08557C379.8 4.08557 380.4 4.08557 380.9 4.08557C397.4 6.68557 414.1 5.88559 430.8 6.28559C457.2 6.98559 483.6 7.48557 510 8.08557C517 8.18557 524 8.18558 531 8.18558C533.8 8.18558 534.3 8.78557 534.2 11.4856C534.2 12.1856 534.9 12.9856 535.4 13.8856C534.9 13.8856 534.1 13.9856 533.3 14.0856C529.7 14.3856 526.1 14.6856 522.5 14.9856C522 14.9856 521.4 15.0856 521 15.3856C517.4 18.1856 513.5 17.4856 509.6 16.7856C508 16.4856 504.3 17.4856 502.4 18.4856C501.6 18.8856 500.3 18.8856 499.5 18.4856C496.9 17.3856 494.3 16.9856 490.8 17.4856C490.4 18.3856 490 19.4856 489.5 20.8856C491.4 21.1856 493.1 21.5856 494.7 21.5856C513 21.9856 531.4 22.1856 549.7 22.6856C555.5 22.7856 561.4 23.6856 567.2 23.8856C576.4 24.1856 585.7 24.1856 594.9 24.3856C599.6 24.4856 604.2 25.1856 608.9 25.3856C618.9 25.8856 628.9 26.2856 638.9 26.5856C650.3 26.9856 661.8 27.1856 673.2 27.4856C675.8 27.5856 678.3 27.4856 680.8 27.4856C681.6 29.1856 681.2 30.0856 679.7 30.3856C678.7 30.5856 677.6 30.3856 676.6 30.5856C676 30.6856 675.4 30.9856 674.8 31.5856C679 33.1856 683.6 31.6856 687.8 32.5856C687.8 32.8856 687.8 33.1856 687.8 33.4856C686.2 33.6856 684.6 33.9856 683 34.0856C677.7 34.4856 672.4 34.6856 667.1 35.0856C666.2 35.1856 665.2 35.1856 664.4 35.5856C659.9 37.3856 655.2 37.4856 650.6 37.2856C642 36.9856 633.5 37.9856 625 38.5856C621.8 38.8856 618.5 38.6856 615.2 38.7856C614 38.7856 612.8 39.1856 611.7 39.4856C611.7 39.7856 611.7 40.0856 611.7 40.2856C612.4 40.4856 613 40.8856 613.7 40.8856C625.6 41.2856 637.6 41.6856 649.5 42.0856C651.2 42.1856 652.9 42.4856 654.6 42.4856C656.9 42.3856 658.7 43.3856 659.8 45.1856C660.6 46.5856 661.6 46.7856 663 46.7856C665.5 46.7856 667.9 46.8856 670.4 46.9856C672.3 47.0856 674.3 46.5856 675.6 48.6856C675.9 49.2856 677.3 49.2856 678.2 49.3856C681.3 49.7856 684.4 50.4856 687.5 50.2856C691.3 50.0856 694 52.1856 696.8 53.8856C698.2 54.7856 699.5 55.0856 701.1 55.0856C708.6 55.3856 716.2 55.6856 723.7 56.0856C724.1 56.0856 724.6 56.2856 725 56.2856C724.5 56.5856 724.5 56.7856 724.5 56.9856ZM173 65.5856C172.4 65.4856 171.9 65.3856 171.4 65.4856C165.3 65.9856 159.2 66.4856 153.2 66.8856C151.3 66.9856 149.2 67.1856 147.4 66.5856C144.9 65.6856 143 66.4856 140.7 67.2856C143.1 69.0856 147.4 69.4856 157.5 69.2856C163.1 69.1856 168.8 69.1856 174.8 69.0856C174 67.5856 173.5 66.5856 173 65.5856ZM182.4 71.0856C186.4 73.3856 196.2 73.4856 199.2 71.0856C194.4 69.8856 189.9 68.6856 185.3 67.7856C183.2 67.4856 182.1 68.7856 182.4 71.0856ZM8.3 126.886C12.4 128.286 19.9 127.986 21.9 126.486C17.4 126.286 12.8 125.586 8.3 126.886Z" fill="#99C31C"/>
<path d="M621.5 20.1856C622 18.8856 622.3 18.1856 622.8 16.9856C619.3 16.6856 616.1 16.3856 612.9 16.2856C605 15.9856 597.1 15.6856 589.2 15.5856C586.5 15.5856 583.8 15.9856 581.1 16.2856C580.8 16.2856 580.6 16.3856 580.3 16.3856C574.7 16.7856 569.1 17.9856 563.7 17.2856C559.9 16.7856 556.7 18.3856 553.1 17.9856C549.6 17.5856 546.1 17.9856 542.6 17.8856C540.3 17.8856 538.1 17.6856 535.7 16.9856C536.4 16.6856 537.1 16.2856 537.8 16.2856C541.3 15.8856 544.8 15.6856 548.2 15.1856C550 14.9856 552.2 15.1856 552.9 12.5856C553 12.1856 554.2 11.7856 554.9 11.8856C562.7 12.2856 570.5 12.8856 578.2 13.1856C590.8 13.6856 603.4 14.0856 616 14.3856C618.1 14.3856 620.2 13.7856 622.2 12.8856C616.3 11.0856 610.4 11.0856 604.4 10.9856C598.4 10.7856 592.5 10.1856 586.5 9.68558C580.5 9.28558 574.4 8.78559 568.4 8.38559C568.4 8.08559 568.4 7.88557 568.3 7.58557C569.2 7.48557 570.1 7.18558 571 7.18558C581.4 7.28558 591.8 7.28557 602.2 7.58557C610.8 7.78557 619.3 8.48558 627.9 8.68558C632.2 8.78558 636.5 8.38558 640.8 8.28558C648.2 7.98558 655.6 7.58557 663 7.48557C668.6 7.38557 674.2 7.58558 679.7 7.68558C681 7.68558 682.2 7.98557 683.5 8.08557C683.5 8.38557 683.6 8.68557 683.6 8.98557C680.8 9.68557 678 10.4856 674.8 11.2856C676.3 12.9856 678.1 12.7856 679.6 12.8856C694.6 13.9856 709.7 14.9856 724.7 16.0856C724.9 16.0856 725 16.3856 725.5 16.7856C724.8 17.1856 724.2 17.5856 723.5 17.7856C718.1 19.2856 712.5 19.3856 707 18.7856C704.7 18.5856 702.4 18.4856 700.1 18.5856C690.3 19.0856 680.4 19.8856 670.5 19.5856C664.3 19.3856 658 19.2856 651.8 19.3856C648.2 19.3856 644.6 19.9856 640.9 19.9856C637.3 19.9856 633.7 20.9856 630.2 19.4856C629 18.9856 627.4 19.5856 626 19.7856C624.7 19.7856 623.3 19.9856 621.5 20.1856Z" fill="#99C31C"/>
<path d="M540.9 166.786C540.3 167.386 540.3 167.586 540.2 167.586C534.9 167.886 529.9 169.786 524.8 170.886C522.8 171.286 520.9 171.086 520 168.686C515.1 170.586 510.2 170.586 505.3 170.486C496.5 170.286 487.7 170.086 478.9 169.886C463.3 169.486 447.7 168.986 432.1 168.886C422.9 168.786 413.7 169.286 404.4 169.486C400.5 169.586 396.6 169.386 392.7 169.286C391.9 169.286 391.1 168.886 390.3 168.386C393.1 167.086 396 167.186 398.9 167.186C401.9 167.186 404.8 167.286 407.8 167.386C417 167.686 426.2 166.986 435.4 166.586C444.1 166.186 452.8 165.786 461.5 165.586C468.4 165.386 475.2 165.186 482.1 165.186C485 165.186 488 165.986 490.9 165.986C506.9 166.186 522.9 166.286 538.9 166.486C539.3 166.386 539.9 166.586 540.9 166.786Z" fill="#99C31C"/>
<path d="M683.1 156.786C680.6 158.886 678.2 159.486 675.6 159.886C671.6 160.486 667.7 161.186 663.7 161.786C660.5 162.286 657.3 162.586 654 162.986C648.4 163.586 642.6 163.786 637.1 164.986C632.5 165.986 627.9 166.586 623.2 166.586C621.8 166.586 620.4 166.386 619 166.186C618.5 166.086 618 165.886 617.5 165.986C611 166.586 604.4 167.286 597.9 167.786C592.8 168.186 587.6 168.186 582.4 167.686C584.4 167.286 586.5 166.686 588.6 166.486C594.5 165.886 600.5 165.486 606.4 164.786C611.9 164.186 617.4 163.186 623 162.486C627.5 161.986 632.1 161.786 636.6 161.486C645.8 160.786 655 160.086 664.2 159.386C667.7 159.086 671.2 159.086 674.6 158.686C677.2 158.286 679.9 157.486 683.1 156.786Z" fill="#99C31C"/>
<path d="M300.2 163.386C297.3 163.186 294.3 162.886 291.4 162.686C288.9 162.586 286.5 162.686 284 162.686C275.6 162.686 267.1 162.586 258.7 162.686C253 162.786 247.3 163.186 241.6 163.386C241.1 163.386 240.6 163.386 240 162.586C242 162.286 243.9 161.786 245.9 161.586C256.5 160.586 297.1 161.386 300.2 162.486C300.3 162.786 300.3 163.086 300.2 163.386Z" fill="#99C31C"/>
<path d="M543.7 171.686C544.3 170.786 544.4 170.486 544.6 170.386C551.3 169.186 558 168.086 564.4 166.986C565.7 168.486 566.6 169.486 567.8 170.986C559.8 171.286 552.1 171.486 543.7 171.686Z" fill="#99C31C"/>
<path d="M303.7 162.386C305.3 162.186 306.5 161.786 307.8 161.786C313 161.786 318.2 161.986 323.8 162.086C319 164.386 307.9 164.586 303.7 162.386Z" fill="#99C31C"/>
<path d="M368.3 162.586C364.8 164.886 361.6 163.186 358.6 163.586C361.6 162.686 364.6 161.986 368.3 162.586Z" fill="#99C31C"/>
<path d="M702.6 52.0856C704.4 50.4856 706.3 51.3856 708.2 51.4856C708.2 51.8856 708.3 52.1856 708.3 52.5856C706.5 52.7856 704.6 52.8856 702.8 53.0856C702.7 52.7856 702.6 52.4856 702.6 52.0856Z" fill="#99C31C"/>
<path d="M592.6 171.286C590.4 171.286 588.3 171.286 586.1 171.286C586.1 171.186 586.1 171.086 586 170.986C588.2 170.886 590.3 170.686 592.5 170.586C592.5 170.786 592.5 170.986 592.6 171.286Z" fill="#99C31C"/>
<path d="M726.8 67.8856C728.2 67.7856 729.5 67.7856 730.9 67.6856C730.9 67.8856 731 68.1856 731 68.3856C729.6 68.5856 728.3 68.7856 726.9 68.9856C726.9 68.5856 726.8 68.2856 726.8 67.8856Z" fill="#99C31C"/>
<path d="M732.1 56.8856C731.2 56.8856 730.2 56.8856 729.3 56.8856C729.3 56.6856 729.3 56.5856 729.3 56.3856C730.2 56.2856 731.1 56.2856 732.1 56.1856C732 56.4856 732.1 56.6856 732.1 56.8856Z" fill="#99C31C"/>
<path d="M733.4 115.586C734.1 115.586 734.9 115.686 735.6 115.686C735.6 115.886 735.6 116.186 735.5 116.386C734.8 116.386 734 116.286 733.3 116.286C733.4 116.086 733.4 115.786 733.4 115.586Z" fill="#99C31C"/>
<path d="M382 162.686C382.8 162.586 383.7 162.586 384.5 162.486C384.5 162.686 384.6 162.986 384.6 163.186C383.8 163.386 383 163.486 382.1 163.686C382.1 163.286 382.1 162.986 382 162.686Z" fill="#99C31C"/>
<path d="M710.3 61.6856C710.9 61.6856 711.5 61.6856 712.8 61.6856C711.9 62.2856 711.6 62.5856 711.2 62.5856C710.9 62.5856 710.6 62.3856 710.2 62.2856C710.3 62.0856 710.3 61.8856 710.3 61.6856Z" fill="#99C31C"/>
</svg>
