<svg width="225" height="11" viewBox="0 0 225 11" fill="none" xmlns="http://www.w3.org/2000/svg">
<path d="M28.2 0L34 10.4H41.7999L36 0H28.2ZM14 0L20 10.4H27.6L21.7999 0H14ZM0 0L5.79993 10.4H13.6L7.79993 0H0ZM70.2 0.200012L76 10.4H83.7999L78 0.200012H70.2ZM42 0.200012L48 10.4H55.6L49.7999 0.200012H42ZM56 0.200012L61.7999 10.4H69.6L63.7999 0.200012H56ZM98.2 0.200012L104 10.6H111.8L105.8 0.200012H98.2ZM112.4 0.200012L118.2 10.6H126L120 0.200012H112.4ZM84.3999 0.200012L90.2 10.6H98L92.2 0.200012H84.3999ZM126.6 0.200012L132.4 10.6H140.2L134.2 0.200012H126.6ZM154.8 0.200012L160.6 10.6H168.4L162.4 0.200012H154.8ZM140.8 0.200012L146.8 10.6H154.4L148.6 0.200012H140.8ZM197 0.399994L202.8 10.6H210.6L204.8 0.399994H197ZM183 0.399994L188.8 10.6H196.6L190.6 0.399994H183ZM169 0.399994L174.8 10.6H182.6L176.8 0.399994H169ZM211.2 0.399994L217 10.8H224.8L218.8 0.399994H211.2Z" fill="#1C1C1C"/>
</svg>
